<?xml version="1.0" encoding="UTF-8" standalone="no"?>
<svg
   viewBox="1413.5 192.80002 108.59998 149.10001"
   width="108.59998"
   height="149.10001"
   version="1.1"
   id="svg1"
   sodipodi:docname="poster-placeholder.svg"
   inkscape:export-filename="poster-placeholder2.svg"
   inkscape:export-xdpi="96"
   inkscape:export-ydpi="96"
   xmlns:inkscape="http://www.inkscape.org/namespaces/inkscape"
   xmlns:sodipodi="http://sodipodi.sourceforge.net/DTD/sodipodi-0.dtd"
   xmlns="http://www.w3.org/2000/svg"
   xmlns:svg="http://www.w3.org/2000/svg">
  <defs
     id="defs1" />
  <sodipodi:namedview
     id="namedview1"
     pagecolor="#ffffff"
     bordercolor="#000000"
     borderopacity="0.25"
     inkscape:showpageshadow="2"
     inkscape:pageopacity="0.0"
     inkscape:pagecheckerboard="0"
     inkscape:deskcolor="#d1d1d1"
     inkscape:export-bgcolor="#ffffffff">
    <inkscape:page
       x="0"
       y="0"
       width="108.59998"
       height="149.10001"
       id="page2"
       margin="0"
       bleed="0" />
  </sodipodi:namedview>
  <rect
     style="fill:#5c5b79;fill-opacity:1"
     id="rect1"
     width="108.28388"
     height="148.72725"
     x="1413.6864"
     y="193.17278" />
  <path
     fill="#cccccc"
     d="m 1413.5,242.5 c 0,16.6 0,33.1 0,49.7 36.2,49.7 72.4,-49.7 108.6,0 0,-16.6 0,-33.1 0,-49.7 -36.2,-49.7 -72.4,49.7 -108.6,0 z m 8.7,56.7 c -1.6,-1.3 -3.3,-2.8 -4.9,-4.6 0,-1.6 0,-3.3 0,-4.9 1.6,1.8 3.3,3.3 4.9,4.6 0,1.7 0,3.3 0,4.9 z m 0,-39.8 c -1.6,-1.3 -3.3,-2.8 -4.9,-4.6 0,-1.6 0,-3.3 0,-4.9 1.6,1.8 3.3,3.3 4.9,4.6 0,1.6 0,3.3 0,4.9 z m 9.6,44.4 c -1.6,-0.4 -3.3,-0.9 -4.9,-1.7 0,-1.6 0,-3.3 0,-4.9 1.6,0.8 3.3,1.4 4.9,1.7 0,1.7 0,3.3 0,4.9 z m 0,-39.8 c -1.6,-0.4 -3.3,-0.9 -4.9,-1.7 0,-1.6 0,-3.3 0,-4.9 1.6,0.8 3.3,1.4 4.9,1.7 0,1.7 0,3.3 0,4.9 z m 9.6,39.8 c -1.6,0.3 -3.3,0.5 -4.9,0.5 0,-1.6 0,-3.3 0,-4.9 1.6,0 3.3,-0.2 4.9,-0.5 0,1.7 0,3.3 0,4.9 z m 0,-39.8 c -1.6,0.3 -3.3,0.5 -4.9,0.5 0,-1.6 0,-3.3 0,-4.9 1.6,0 3.3,-0.2 4.9,-0.5 0,1.6 0,3.3 0,4.9 z m 9.6,36.4 c -1.6,0.8 -3.3,1.5 -4.9,2.1 0,-1.6 0,-3.3 0,-4.9 1.6,-0.6 3.3,-1.3 4.9,-2.1 0,1.7 0,3.3 0,4.9 z m 0,-39.8 c -1.6,0.8 -3.3,1.5 -4.9,2.1 0,-1.6 0,-3.3 0,-4.9 1.6,-0.6 3.3,-1.3 4.9,-2.1 0,1.6 0,3.3 0,4.9 z m 9.5,34.3 c -1.6,1.1 -3.3,2.1 -4.9,3 0,-1.6 0,-3.3 0,-4.9 1.6,-1 3.3,-2 4.9,-3 0,1.6 0,3.2 0,4.9 z m 0,-39.8 c -1.6,1.1 -3.3,2.1 -4.9,3 0,-1.6 0,-3.3 0,-4.9 1.6,-1 3.3,-2 4.9,-3 0,1.6 0,3.2 0,4.9 z m 9.6,33.3 c -1.6,1.1 -3.3,2.3 -4.9,3.4 0,-1.6 0,-3.3 0,-4.9 1.6,-1.1 3.3,-2.2 4.9,-3.4 0,1.6 0,3.2 0,4.9 z m 0,-39.8 c -1.6,1.1 -3.3,2.3 -4.9,3.4 0,-1.6 0,-3.3 0,-4.9 1.6,-1.1 3.3,-2.2 4.9,-3.4 0,1.6 0,3.2 0,4.9 z m 9.6,33.6 c -1.6,1 -3.3,2 -4.9,3.1 0,-1.6 0,-3.3 0,-4.9 1.6,-1.1 3.3,-2.1 4.9,-3.1 0,1.6 0,3.3 0,4.9 z m 0,-39.8 c -1.6,1 -3.3,2 -4.9,3.1 0,-1.6 0,-3.3 0,-4.9 1.6,-1.1 3.3,-2.1 4.9,-3.1 0,1.6 0,3.2 0,4.9 z m 9.6,35.1 c -1.6,0.6 -3.3,1.3 -4.9,2.1 0,-1.6 0,-3.3 0,-4.9 1.6,-0.8 3.3,-1.5 4.9,-2.1 0,1.7 0,3.3 0,4.9 z m 0,-39.8 c -1.6,0.6 -3.3,1.3 -4.9,2.1 0,-1.6 0,-3.3 0,-4.9 1.6,-0.8 3.3,-1.5 4.9,-2.1 0,1.7 0,3.3 0,4.9 z m 9.6,37.9 c -1.6,0 -3.3,0.2 -4.9,0.6 0,-1.6 0,-3.3 0,-4.9 1.6,-0.3 3.3,-0.5 4.9,-0.6 0,1.7 0,3.3 0,4.9 z m 0,-39.8 c -1.6,0 -3.3,0.2 -4.9,0.6 0,-1.6 0,-3.3 0,-4.9 1.6,-0.3 3.3,-0.5 4.9,-0.6 0,1.6 0,3.3 0,4.9 z m 14.2,0 c 1.6,1.2 3.3,2.7 4.9,4.5 0,1.6 0,3.3 0,4.9 -1.6,-1.8 -3.3,-3.2 -4.9,-4.5 0,-1.6 0,-3.2 0,-4.9 z m 0,39.8 c 1.6,1.2 3.3,2.7 4.9,4.5 0,1.6 0,3.3 0,4.9 -1.6,-1.8 -3.3,-3.2 -4.9,-4.5 0,-1.6 0,-3.2 0,-4.9 z m -9.6,-44.2 c 1.6,0.3 3.3,0.9 4.9,1.6 0,1.6 0,3.3 0,4.9 -1.6,-0.8 -3.3,-1.3 -4.9,-1.6 0,-1.7 0,-3.3 0,-4.9 z m 0,39.8 c 1.6,0.3 3.3,0.9 4.9,1.6 0,1.6 0,3.3 0,4.9 -1.6,-0.8 -3.3,-1.3 -4.9,-1.6 0,-1.7 0,-3.3 0,-4.9 z"
     id="path1" />
</svg>
